<mxfile host="app.diagrams.net" modified="2024-01-17T03:11:12.132Z" agent="Mozilla/5.0 (Macintosh; Intel Mac OS X 10_15_7) AppleWebKit/537.36 (KHTML, like Gecko) Chrome/120.0.0.0 Safari/537.36" etag="S9RXQF5hS5bS1qpRrI-s" version="22.1.20" type="device">
  <diagram name="Page-1" id="0l9hWnYsjOHFYBMx_G24">
    <mxGraphModel dx="591" dy="345" grid="1" gridSize="10" guides="1" tooltips="1" connect="1" arrows="1" fold="1" page="1" pageScale="1" pageWidth="850" pageHeight="1100" math="0" shadow="0">
      <root>
        <mxCell id="0" />
        <mxCell id="1" parent="0" />
        <mxCell id="wNjYZiEP6nKSxD9GBYbR-1" value="" style="rounded=1;whiteSpace=wrap;html=1;fillColor=#dae8fc;strokeColor=#6c8ebf;sketch=1;curveFitting=1;jiggle=2;" vertex="1" parent="1">
          <mxGeometry x="50" y="340" width="150" height="60" as="geometry" />
        </mxCell>
        <mxCell id="wNjYZiEP6nKSxD9GBYbR-2" value="" style="rounded=1;whiteSpace=wrap;html=1;fillColor=#fff2cc;strokeColor=#d6b656;sketch=1;curveFitting=1;jiggle=2;" vertex="1" parent="1">
          <mxGeometry x="410" y="340" width="120" height="60" as="geometry" />
        </mxCell>
        <mxCell id="wNjYZiEP6nKSxD9GBYbR-3" value="" style="endArrow=classic;html=1;rounded=0;exitX=1;exitY=0.25;exitDx=0;exitDy=0;entryX=0;entryY=0.25;entryDx=0;entryDy=0;sketch=1;curveFitting=1;jiggle=2;" edge="1" parent="1" source="wNjYZiEP6nKSxD9GBYbR-1" target="wNjYZiEP6nKSxD9GBYbR-2">
          <mxGeometry width="50" height="50" relative="1" as="geometry">
            <mxPoint x="400" y="410" as="sourcePoint" />
            <mxPoint x="450" y="360" as="targetPoint" />
          </mxGeometry>
        </mxCell>
        <mxCell id="wNjYZiEP6nKSxD9GBYbR-4" value="" style="endArrow=classic;html=1;rounded=0;entryX=1;entryY=0.75;entryDx=0;entryDy=0;exitX=0;exitY=0.75;exitDx=0;exitDy=0;sketch=1;curveFitting=1;jiggle=2;" edge="1" parent="1" source="wNjYZiEP6nKSxD9GBYbR-2" target="wNjYZiEP6nKSxD9GBYbR-1">
          <mxGeometry width="50" height="50" relative="1" as="geometry">
            <mxPoint x="400" y="410" as="sourcePoint" />
            <mxPoint x="450" y="360" as="targetPoint" />
          </mxGeometry>
        </mxCell>
        <mxCell id="wNjYZiEP6nKSxD9GBYbR-5" value="service-consumer" style="text;html=1;strokeColor=none;fillColor=none;align=center;verticalAlign=middle;whiteSpace=wrap;rounded=0;fontSize=14;fontStyle=1;sketch=1;curveFitting=1;jiggle=2;" vertex="1" parent="1">
          <mxGeometry x="70" y="300" width="130" height="30" as="geometry" />
        </mxCell>
        <mxCell id="wNjYZiEP6nKSxD9GBYbR-6" value="service-provider" style="text;html=1;strokeColor=none;fillColor=none;align=center;verticalAlign=middle;whiteSpace=wrap;rounded=0;fontSize=14;fontStyle=1;sketch=1;curveFitting=1;jiggle=2;" vertex="1" parent="1">
          <mxGeometry x="410" y="300" width="130" height="30" as="geometry" />
        </mxCell>
        <mxCell id="wNjYZiEP6nKSxD9GBYbR-13" value="2 s (handle request)" style="text;html=1;strokeColor=none;fillColor=none;align=center;verticalAlign=middle;whiteSpace=wrap;rounded=0;" vertex="1" parent="1">
          <mxGeometry x="410" y="355" width="110" height="30" as="geometry" />
        </mxCell>
        <mxCell id="wNjYZiEP6nKSxD9GBYbR-15" value="response-timeout &amp;lt; =2000" style="text;html=1;strokeColor=none;fillColor=none;align=center;verticalAlign=middle;whiteSpace=wrap;rounded=0;" vertex="1" parent="1">
          <mxGeometry x="46" y="355" width="150" height="30" as="geometry" />
        </mxCell>
        <mxCell id="wNjYZiEP6nKSxD9GBYbR-17" value="" style="shape=image;html=1;verticalAlign=top;verticalLabelPosition=bottom;labelBackgroundColor=#ffffff;imageAspect=0;aspect=fixed;image=https://cdn1.iconfinder.com/data/icons/DarkGlass_Reworked/128x128/actions/fileclose.png" vertex="1" parent="1">
          <mxGeometry x="190" y="360" width="20" height="20" as="geometry" />
        </mxCell>
        <mxCell id="wNjYZiEP6nKSxD9GBYbR-18" value="" style="endArrow=none;dashed=1;html=1;dashPattern=1 3;strokeWidth=2;rounded=0;" edge="1" parent="1">
          <mxGeometry width="50" height="50" relative="1" as="geometry">
            <mxPoint y="420" as="sourcePoint" />
            <mxPoint x="580" y="420" as="targetPoint" />
          </mxGeometry>
        </mxCell>
        <mxCell id="wNjYZiEP6nKSxD9GBYbR-19" value="" style="rounded=1;whiteSpace=wrap;html=1;fillColor=#dae8fc;strokeColor=#6c8ebf;sketch=1;curveFitting=1;jiggle=2;" vertex="1" parent="1">
          <mxGeometry x="50" y="460" width="150" height="60" as="geometry" />
        </mxCell>
        <mxCell id="wNjYZiEP6nKSxD9GBYbR-20" value="" style="rounded=1;whiteSpace=wrap;html=1;fillColor=#fff2cc;strokeColor=#d6b656;sketch=1;curveFitting=1;jiggle=2;" vertex="1" parent="1">
          <mxGeometry x="410" y="460" width="120" height="60" as="geometry" />
        </mxCell>
        <mxCell id="wNjYZiEP6nKSxD9GBYbR-21" value="" style="endArrow=classic;html=1;rounded=0;exitX=1;exitY=0.25;exitDx=0;exitDy=0;entryX=0;entryY=0.25;entryDx=0;entryDy=0;sketch=1;curveFitting=1;jiggle=2;" edge="1" parent="1" source="wNjYZiEP6nKSxD9GBYbR-19" target="wNjYZiEP6nKSxD9GBYbR-20">
          <mxGeometry width="50" height="50" relative="1" as="geometry">
            <mxPoint x="400" y="530" as="sourcePoint" />
            <mxPoint x="450" y="480" as="targetPoint" />
          </mxGeometry>
        </mxCell>
        <mxCell id="wNjYZiEP6nKSxD9GBYbR-22" value="" style="endArrow=classic;html=1;rounded=0;entryX=1;entryY=0.75;entryDx=0;entryDy=0;exitX=0;exitY=0.75;exitDx=0;exitDy=0;sketch=1;curveFitting=1;jiggle=2;" edge="1" parent="1" source="wNjYZiEP6nKSxD9GBYbR-20" target="wNjYZiEP6nKSxD9GBYbR-19">
          <mxGeometry width="50" height="50" relative="1" as="geometry">
            <mxPoint x="400" y="530" as="sourcePoint" />
            <mxPoint x="450" y="480" as="targetPoint" />
          </mxGeometry>
        </mxCell>
        <mxCell id="wNjYZiEP6nKSxD9GBYbR-23" value="service-consumer" style="text;html=1;strokeColor=none;fillColor=none;align=center;verticalAlign=middle;whiteSpace=wrap;rounded=0;fontSize=14;fontStyle=1;sketch=1;curveFitting=1;jiggle=2;" vertex="1" parent="1">
          <mxGeometry x="70" y="420" width="130" height="30" as="geometry" />
        </mxCell>
        <mxCell id="wNjYZiEP6nKSxD9GBYbR-24" value="service-provider" style="text;html=1;strokeColor=none;fillColor=none;align=center;verticalAlign=middle;whiteSpace=wrap;rounded=0;fontSize=14;fontStyle=1;sketch=1;curveFitting=1;jiggle=2;" vertex="1" parent="1">
          <mxGeometry x="410" y="420" width="130" height="30" as="geometry" />
        </mxCell>
        <mxCell id="wNjYZiEP6nKSxD9GBYbR-25" value="2 s (handle request)" style="text;html=1;strokeColor=none;fillColor=none;align=center;verticalAlign=middle;whiteSpace=wrap;rounded=0;" vertex="1" parent="1">
          <mxGeometry x="410" y="475" width="110" height="30" as="geometry" />
        </mxCell>
        <mxCell id="wNjYZiEP6nKSxD9GBYbR-26" value="response-timeout &amp;gt;2000 a little bit&amp;nbsp;&lt;br&gt;&amp;nbsp;|| not&amp;nbsp;specified" style="text;html=1;strokeColor=none;fillColor=none;align=center;verticalAlign=middle;whiteSpace=wrap;rounded=0;" vertex="1" parent="1">
          <mxGeometry x="50" y="475" width="140" height="30" as="geometry" />
        </mxCell>
        <mxCell id="wNjYZiEP6nKSxD9GBYbR-28" value="" style="verticalLabelPosition=bottom;verticalAlign=top;html=1;shape=mxgraph.basic.tick;fillColor=#1cd43a;" vertex="1" parent="1">
          <mxGeometry x="190" y="480" width="25" height="20" as="geometry" />
        </mxCell>
      </root>
    </mxGraphModel>
  </diagram>
</mxfile>
